<svg xmlns="http://www.w3.org/2000/svg" xmlns:xlink="http://www.w3.org/1999/xlink" preserveAspectRatio="xMidYMid" width="56" height="56" viewBox="0 0 56 56">
  <defs>
    <style>
      .cls-1 {
        fill: #fff;
        fill-rule: evenodd;
      }
    </style>
  </defs>
  <path d="M56.000,28.000 C56.000,35.479 53.087,42.510 47.799,47.799 C42.510,53.087 35.479,56.000 27.999,56.000 C24.698,56.000 21.484,55.430 18.468,54.341 L18.046,54.763 C17.404,55.405 16.561,55.726 15.717,55.726 C14.874,55.726 14.030,55.405 13.388,54.763 C12.477,53.851 12.212,52.534 12.595,51.387 C11.030,50.353 9.557,49.155 8.200,47.799 C7.247,46.845 6.372,45.834 5.576,44.773 C5.337,44.828 5.092,44.856 4.847,44.856 C4.003,44.856 3.160,44.535 2.518,43.893 C1.896,43.271 1.553,42.443 1.553,41.563 C1.553,40.743 1.851,39.967 2.396,39.362 C0.828,35.831 -0.001,31.979 -0.001,28.000 C-0.001,20.521 2.912,13.489 8.200,8.201 C13.489,2.912 20.521,-0.000 27.999,-0.000 C35.479,-0.000 42.510,2.912 47.798,8.201 C50.335,10.737 52.323,13.676 53.707,16.871 C53.952,16.955 54.165,17.125 54.300,17.361 C54.490,17.692 54.491,18.089 54.322,18.414 C55.424,21.445 56.000,24.678 56.000,28.000 ZM14.941,53.210 C15.369,53.638 16.066,53.638 16.494,53.210 L49.700,20.004 L48.880,20.220 C43.900,21.531 39.344,24.148 35.703,27.789 L31.218,32.274 C30.792,32.699 30.574,33.288 30.618,33.888 C30.709,35.126 30.258,36.340 29.380,37.218 L14.941,51.657 C14.512,52.085 14.512,52.782 14.941,53.210 ZM13.896,49.596 L17.083,46.409 C14.535,44.893 12.328,42.865 10.604,40.465 L7.466,43.603 C9.251,45.947 11.427,47.977 13.896,49.596 ZM27.999,2.196 C13.771,2.196 2.195,13.772 2.195,28.000 C2.195,31.419 2.866,34.683 4.080,37.672 L7.515,34.236 C6.913,32.262 6.588,30.168 6.588,28.000 C6.588,16.193 16.193,6.588 27.999,6.588 C28.211,6.588 28.609,6.540 29.039,6.502 L32.878,2.662 C31.297,2.358 29.668,2.196 27.999,2.196 ZM26.184,9.357 L26.712,8.828 C16.715,9.493 8.784,17.837 8.784,28.000 C8.784,29.531 8.965,31.019 9.305,32.447 L22.746,19.006 C23.731,18.021 24.246,16.659 24.161,15.268 L24.131,14.783 C24.005,12.764 24.754,10.786 26.184,9.357 ZM43.604,7.465 L34.533,16.536 C34.318,16.751 34.037,16.858 33.756,16.858 C33.475,16.858 33.195,16.751 32.980,16.536 C32.551,16.108 32.551,15.412 32.980,14.984 L41.158,6.805 L41.158,6.805 L41.773,6.190 C41.124,5.779 40.455,5.395 39.769,5.041 C39.724,5.116 39.670,5.188 39.606,5.252 L31.427,13.431 C31.213,13.645 30.931,13.752 30.650,13.752 C30.369,13.752 30.088,13.645 29.874,13.431 C29.445,13.002 29.445,12.307 29.874,11.878 L37.674,4.078 C37.013,3.810 36.339,3.568 35.652,3.354 L35.443,3.191 C35.415,3.226 35.387,3.260 35.355,3.292 L27.736,10.910 C26.751,11.895 26.236,13.257 26.322,14.647 L26.352,15.133 C26.477,17.151 25.729,19.129 24.299,20.559 L4.071,40.787 C3.863,40.994 3.749,41.270 3.749,41.563 C3.749,41.857 3.863,42.132 4.071,42.340 C4.499,42.768 5.196,42.768 5.623,42.340 L25.852,22.111 C27.282,20.681 29.260,19.932 31.278,20.058 L31.764,20.088 C33.155,20.174 34.516,19.659 35.501,18.674 L44.264,9.911 C44.693,9.482 45.388,9.482 45.817,9.911 C46.246,10.340 46.246,11.035 45.817,11.464 L37.054,20.227 C35.624,21.657 33.646,22.406 31.628,22.280 L31.142,22.250 C29.752,22.165 28.390,22.679 27.405,23.664 L12.179,38.890 C13.862,41.327 16.092,43.356 18.691,44.801 L27.828,35.665 C28.253,35.239 28.472,34.651 28.428,34.050 C28.337,32.812 28.788,31.599 29.665,30.721 L34.150,26.236 C38.066,22.321 42.966,19.506 48.321,18.096 L51.462,17.269 C49.681,13.389 46.965,10.025 43.604,7.465 ZM52.600,20.209 L25.729,47.080 C26.473,47.169 27.231,47.215 27.999,47.215 C35.427,47.215 42.264,42.856 45.419,36.109 C45.676,35.560 46.329,35.323 46.879,35.580 C47.428,35.837 47.665,36.490 47.408,37.040 C45.706,40.680 43.021,43.766 39.643,45.963 C36.173,48.219 32.147,49.412 28.000,49.412 C26.566,49.412 25.165,49.269 23.810,48.999 L20.208,52.600 C22.668,53.381 25.285,53.804 27.999,53.804 C42.228,53.804 53.803,42.228 53.803,28.000 C53.803,25.286 53.381,22.668 52.600,20.209 ZM47.178,29.195 C47.188,29.040 47.196,28.884 47.202,28.727 C47.224,28.121 47.733,27.646 48.340,27.671 C48.946,27.693 49.419,28.203 49.396,28.809 C49.390,28.984 49.381,29.158 49.370,29.331 C49.334,29.914 48.851,30.361 48.275,30.361 C48.253,30.361 48.230,30.361 48.207,30.360 C47.602,30.322 47.141,29.801 47.178,29.195 Z" class="cls-1"/>
</svg>
