<svg xmlns="http://www.w3.org/2000/svg" xmlns:xlink="http://www.w3.org/1999/xlink" preserveAspectRatio="xMidYMid" width="72" height="56" viewBox="0 0 72 56">
  <defs>
    <style>
      .cls-1 {
        fill: #fff;
        fill-rule: evenodd;
      }
    </style>
  </defs>
  <path d="M58.000,56.000 C52.957,56.000 48.542,53.335 46.077,49.361 C41.196,53.499 34.885,56.000 28.000,56.000 C12.560,56.000 -0.001,43.439 -0.001,28.000 C-0.001,12.561 12.560,-0.000 28.000,-0.000 C42.566,-0.000 54.564,11.182 55.875,25.412 C57.268,22.964 59.231,20.710 61.436,19.146 C61.672,18.976 61.984,18.955 62.244,19.088 C62.503,19.220 62.666,19.485 62.666,19.774 C62.666,23.373 64.495,25.813 66.613,28.637 C68.900,31.688 71.492,35.147 71.920,40.664 L71.946,41.026 C71.973,41.384 72.000,41.742 72.000,42.126 C72.000,49.775 65.719,56.000 58.000,56.000 ZM58.000,54.458 C60.573,54.458 62.666,52.248 62.666,49.532 C62.666,49.389 62.657,49.255 62.647,49.123 C62.483,46.888 61.553,45.578 60.653,44.310 C60.024,43.424 59.380,42.516 59.049,41.395 C58.307,42.259 57.720,43.336 57.475,44.350 C57.199,45.493 57.176,46.759 57.176,47.856 C57.176,48.282 56.828,48.627 56.398,48.627 C55.089,48.627 54.282,47.744 53.831,46.784 C53.590,47.304 53.370,48.086 53.339,49.232 C53.332,49.346 53.333,49.439 53.333,49.532 C53.333,52.248 55.426,54.458 58.000,54.458 ZM54.133,28.000 C54.133,13.590 42.409,1.866 28.000,1.866 C13.590,1.866 1.866,13.590 1.866,28.000 C1.866,42.410 13.590,54.133 28.000,54.133 C34.439,54.133 40.343,51.792 44.903,47.915 C45.006,47.836 45.104,47.772 45.198,47.719 C44.433,46.006 44.000,44.116 44.000,42.126 C44.000,41.863 44.000,41.601 44.016,41.339 C44.244,33.465 48.160,31.493 48.327,31.413 C48.551,31.303 48.810,31.311 49.032,31.426 C49.251,31.541 49.401,31.753 49.437,31.997 C49.444,32.049 50.163,36.751 53.334,37.422 C53.348,35.398 53.439,32.332 54.134,29.605 C54.163,29.491 54.209,29.375 54.242,29.261 C54.174,28.935 54.132,28.527 54.133,28.000 ZM70.395,41.142 L70.368,40.773 C69.976,35.708 67.632,32.581 65.364,29.556 C63.457,27.013 61.642,24.593 61.209,21.291 C58.596,23.551 56.433,26.890 55.643,29.983 C54.947,32.712 54.889,35.693 54.889,38.272 C54.889,38.698 54.541,39.043 54.111,39.043 C50.627,39.043 48.849,35.894 48.170,33.486 C47.196,34.497 45.704,36.788 45.570,41.408 C45.555,41.665 45.555,41.895 45.555,42.126 C45.555,47.196 48.661,51.558 53.085,53.451 C52.277,52.360 51.777,51.012 51.777,49.532 C51.777,49.411 51.778,49.289 51.785,49.167 C51.884,45.567 53.606,44.589 53.802,44.490 C54.026,44.375 54.292,44.378 54.515,44.492 C54.739,44.608 54.892,44.824 54.927,45.071 C54.929,45.086 55.096,46.151 55.635,46.727 C55.663,45.908 55.740,44.912 55.962,43.991 C56.396,42.196 57.640,40.316 59.132,39.199 C59.367,39.022 59.684,38.992 59.947,39.123 C60.211,39.254 60.379,39.521 60.379,39.813 C60.379,41.246 61.095,42.254 61.925,43.423 C62.899,44.795 64.003,46.350 64.188,48.866 C64.211,49.182 64.222,49.350 64.222,49.532 C64.222,51.012 63.722,52.360 62.915,53.451 C67.338,51.558 70.444,47.196 70.444,42.126 C70.444,41.782 70.419,41.462 70.395,41.142 ZM48.533,28.820 L47.600,28.820 C47.084,28.820 46.666,28.403 46.666,27.887 C46.666,27.371 47.084,26.953 47.600,26.953 L48.533,26.953 C49.048,26.953 49.466,27.371 49.466,27.887 C49.466,28.403 49.048,28.820 48.533,28.820 ZM42.518,43.339 C42.280,43.339 42.041,43.248 41.859,43.066 L41.199,42.406 C40.834,42.041 40.834,41.451 41.199,41.086 C41.564,40.721 42.153,40.721 42.518,41.086 L43.178,41.746 C43.544,42.111 43.544,42.701 43.178,43.066 C42.996,43.248 42.757,43.339 42.518,43.339 ZM42.518,14.687 C42.336,14.869 42.098,14.960 41.859,14.960 C41.619,14.960 41.381,14.869 41.199,14.687 C40.834,14.322 40.834,13.732 41.199,13.367 L41.859,12.707 C42.224,12.343 42.813,12.342 43.178,12.707 C43.544,13.072 43.544,13.662 43.178,14.027 L42.518,14.687 ZM28.000,31.620 C26.266,31.620 24.816,30.425 24.399,28.820 L17.733,28.820 C17.218,28.820 16.800,28.403 16.800,27.887 C16.800,27.371 17.218,26.953 17.733,26.953 L24.399,26.953 C24.739,25.648 25.761,24.626 27.066,24.286 L27.066,14.820 C27.066,14.304 27.485,13.887 28.000,13.887 C28.515,13.887 28.933,14.304 28.933,14.820 L28.933,24.286 C30.538,24.703 31.733,26.152 31.733,27.887 C31.733,29.946 30.058,31.620 28.000,31.620 ZM28.000,26.020 C26.970,26.020 26.133,26.857 26.133,27.887 C26.133,28.916 26.970,29.754 28.000,29.754 C29.029,29.754 29.866,28.916 29.866,27.887 C29.866,26.857 29.029,26.020 28.000,26.020 ZM28.000,9.220 C27.485,9.220 27.066,8.803 27.066,8.287 L27.066,7.354 C27.066,6.837 27.485,6.420 28.000,6.420 C28.515,6.420 28.933,6.837 28.933,7.354 L28.933,8.287 C28.933,8.803 28.515,9.220 28.000,9.220 ZM14.140,43.066 C13.958,43.248 13.720,43.339 13.481,43.339 C13.242,43.339 13.003,43.248 12.821,43.066 C12.456,42.701 12.456,42.111 12.821,41.746 L13.481,41.086 C13.845,40.722 14.435,40.721 14.801,41.086 C15.165,41.451 15.165,42.041 14.801,42.406 L14.140,43.066 ZM14.140,14.960 C13.901,14.960 13.662,14.869 13.481,14.687 L12.821,14.027 C12.456,13.662 12.456,13.072 12.821,12.707 C13.186,12.342 13.776,12.342 14.140,12.707 L14.801,13.367 C15.165,13.732 15.165,14.322 14.801,14.687 C14.618,14.869 14.380,14.960 14.140,14.960 ZM28.000,46.553 C28.515,46.553 28.933,46.971 28.933,47.487 L28.933,48.420 C28.933,48.936 28.515,49.353 28.000,49.353 C27.485,49.353 27.066,48.936 27.066,48.420 L27.066,47.487 C27.066,46.971 27.485,46.553 28.000,46.553 ZM8.400,28.820 L7.466,28.820 C6.951,28.820 6.533,28.403 6.533,27.887 C6.533,27.371 6.951,26.953 7.466,26.953 L8.400,26.953 C8.915,26.953 9.333,27.371 9.333,27.887 C9.333,28.403 8.915,28.820 8.400,28.820 Z" class="cls-1"/>
</svg>
