<svg xmlns="http://www.w3.org/2000/svg" xmlns:xlink="http://www.w3.org/1999/xlink" preserveAspectRatio="xMidYMid" width="42" height="56" viewBox="0 0 42 56">
  <defs>
    <style>
      .cls-1 {
        fill: #fff;
        fill-rule: evenodd;
      }
    </style>
  </defs>
  <path d="M41.920,33.337 L41.880,32.789 C41.239,24.439 37.350,19.204 33.919,14.587 C30.743,10.311 28.000,6.619 28.000,1.171 C28.000,0.734 27.755,0.334 27.366,0.133 C26.976,-0.069 26.508,-0.035 26.154,0.222 C21.002,3.909 16.703,10.122 15.202,16.051 C14.159,20.178 14.021,24.818 14.002,27.882 C9.244,26.866 8.166,19.750 8.155,19.672 C8.101,19.303 7.876,18.982 7.548,18.806 C7.216,18.633 6.826,18.620 6.490,18.787 C6.241,18.908 0.367,21.892 0.025,33.811 C0.001,34.207 -0.000,34.604 -0.000,35.002 C-0.000,46.579 9.420,56.000 21.000,56.000 C32.578,56.000 42.000,46.579 42.000,35.002 C42.000,34.421 41.960,33.878 41.920,33.337 ZM21.000,53.667 C17.139,53.667 13.999,50.322 13.999,46.210 C13.999,46.070 13.998,45.929 14.009,45.756 C14.056,44.022 14.385,42.838 14.746,42.051 C15.423,43.505 16.634,44.841 18.598,44.841 C19.243,44.841 19.765,44.319 19.765,43.674 C19.765,42.013 19.799,40.097 20.212,38.368 C20.580,36.833 21.460,35.203 22.574,33.895 C23.070,35.593 24.036,36.967 24.980,38.307 C26.329,40.226 27.725,42.209 27.970,45.591 C27.985,45.792 28.000,45.994 28.000,46.210 C28.000,50.322 24.860,53.667 21.000,53.667 ZM28.373,52.142 C29.584,50.491 30.333,48.450 30.333,46.210 C30.333,45.936 30.316,45.680 30.282,45.203 C30.005,41.395 28.349,39.041 26.888,36.964 C25.642,35.196 24.568,33.669 24.568,31.502 C24.568,31.059 24.317,30.654 23.921,30.457 C23.527,30.259 23.050,30.303 22.698,30.571 C20.461,32.262 18.595,35.108 17.943,37.825 C17.610,39.218 17.494,40.725 17.453,41.965 C16.644,41.094 16.393,39.481 16.391,39.459 C16.339,39.085 16.109,38.757 15.772,38.584 C15.439,38.410 15.039,38.406 14.703,38.579 C14.409,38.729 11.826,40.210 11.678,45.658 C11.668,45.843 11.666,46.027 11.666,46.211 C11.666,48.450 12.416,50.491 13.627,52.143 C6.992,49.278 2.333,42.676 2.333,35.002 C2.333,34.652 2.332,34.303 2.356,33.915 C2.557,26.922 4.794,23.455 6.255,21.925 C7.273,25.570 9.942,30.335 15.166,30.335 C15.811,30.335 16.333,29.814 16.333,29.169 C16.333,25.265 16.421,20.753 17.465,16.622 C18.649,11.942 21.895,6.889 25.813,3.468 C26.464,8.464 29.186,12.128 32.047,15.977 C35.448,20.555 38.964,25.288 39.553,32.953 L39.593,33.511 C39.629,33.997 39.667,34.481 39.667,35.002 C39.666,42.675 35.008,49.278 28.373,52.142 Z" class="cls-1"/>
</svg>
