<svg xmlns="http://www.w3.org/2000/svg" xmlns:xlink="http://www.w3.org/1999/xlink" preserveAspectRatio="xMidYMid" width="24" height="31.969" viewBox="0 0 24 31.969">
  <defs>
    <style>
      .cls-1 {
        fill: #fff;
        fill-rule: evenodd;
      }
    </style>
  </defs>
  <path d="M24.005,16.976 C24.005,23.955 19.265,34.664 11.996,31.355 C5.094,34.555 -0.010,23.955 -0.010,16.976 C-0.010,10.295 5.470,6.453 11.235,9.196 C13.099,4.106 14.683,1.716 14.683,1.716 C14.884,1.435 15.295,1.326 15.598,1.475 L17.740,2.528 C18.043,2.677 18.071,2.972 17.805,3.184 C17.805,3.184 16.034,4.588 15.129,5.683 L15.127,5.683 C14.058,6.972 13.213,8.316 12.678,9.256 C19.080,6.286 24.005,10.237 24.005,16.976 ZM11.387,6.995 C11.387,6.995 8.793,7.223 6.983,5.320 C5.172,3.416 5.390,0.686 5.390,0.686 C5.418,0.335 5.712,0.025 6.045,-0.004 C6.045,-0.004 8.635,-0.231 10.448,1.673 C12.256,3.577 12.042,6.306 12.042,6.306 C12.015,6.656 11.721,6.966 11.387,6.995 Z" class="cls-1"/>
</svg>
