<svg xmlns="http://www.w3.org/2000/svg" xmlns:xlink="http://www.w3.org/1999/xlink" preserveAspectRatio="xMidYMid" width="56" height="53.97" viewBox="0 0 56 53.97">
  <defs>
    <style>
      .cls-1 {
        fill: #fff;
        fill-rule: evenodd;
      }
    </style>
  </defs>
  <path d="M32.289,40.333 C32.749,40.026 33.371,40.150 33.678,40.610 C33.986,41.069 33.861,41.689 33.401,41.995 C30.746,43.759 27.010,44.460 24.344,44.738 C24.308,44.741 24.274,44.743 24.239,44.743 C23.732,44.743 23.297,44.361 23.243,43.848 C23.186,43.299 23.585,42.808 24.136,42.751 C26.578,42.496 29.975,41.870 32.289,40.333 ZM18.475,46.591 C18.222,46.591 17.969,46.496 17.774,46.306 C17.378,45.920 17.372,45.287 17.758,44.893 C18.696,43.938 19.591,42.797 20.458,41.512 C19.716,40.037 17.844,35.825 17.844,30.890 C17.844,30.338 18.293,29.891 18.846,29.891 C19.399,29.891 19.848,30.338 19.848,30.890 C19.848,34.445 20.951,37.657 21.733,39.488 C23.205,36.999 24.606,34.121 26.002,31.055 C25.174,29.811 23.301,26.418 23.693,21.609 C23.737,21.059 24.222,20.650 24.772,20.694 C25.324,20.738 25.735,21.220 25.690,21.770 C25.437,24.883 26.291,27.331 27.017,28.795 C27.464,27.789 27.912,26.769 28.363,25.742 C29.532,23.080 30.740,20.331 32.031,17.581 C31.103,15.625 31.073,12.555 31.073,12.182 C31.073,11.630 31.522,11.183 32.075,11.183 C32.629,11.183 33.077,11.630 33.077,12.182 C33.078,12.744 33.137,13.929 33.343,15.045 C35.095,12.051 37.442,9.370 40.343,7.051 C40.775,6.706 41.406,6.775 41.752,7.206 C42.098,7.636 42.029,8.265 41.596,8.610 C38.279,11.261 35.742,14.412 34.058,17.975 C33.580,18.986 33.114,19.998 32.657,21.008 C33.775,20.874 35.462,20.422 37.324,19.047 C37.768,18.719 38.396,18.812 38.726,19.255 C39.055,19.698 38.961,20.323 38.517,20.652 C35.694,22.737 33.115,23.052 31.816,23.052 C31.790,23.052 31.765,23.052 31.739,23.051 C31.217,24.226 30.704,25.393 30.199,26.543 C29.244,28.718 28.303,30.859 27.354,32.910 C28.978,32.739 31.669,32.136 34.219,30.109 C34.652,29.765 35.282,29.836 35.628,30.267 C35.972,30.699 35.901,31.327 35.469,31.671 C31.800,34.586 27.940,34.956 26.380,34.974 C24.167,39.560 21.865,43.566 19.191,46.291 C18.994,46.490 18.735,46.591 18.475,46.591 ZM55.622,1.768 C51.285,5.227 47.415,9.836 48.455,20.055 C49.045,25.852 48.495,31.319 46.864,35.865 C44.954,41.184 41.648,45.219 37.035,47.857 C31.367,51.099 26.565,51.835 23.534,51.880 C23.431,51.882 23.327,51.883 23.225,51.883 C19.830,51.883 16.877,51.025 14.936,49.493 C8.795,53.717 1.353,53.961 1.028,53.970 C1.020,53.970 1.010,53.970 1.001,53.970 C0.461,53.970 0.015,53.540 0.001,52.997 C-0.014,52.446 0.422,51.987 0.975,51.972 C1.047,51.970 7.890,51.737 13.485,48.059 C12.082,46.454 10.976,44.588 10.192,42.494 C9.998,41.978 10.261,41.402 10.780,41.209 C11.298,41.016 11.875,41.279 12.069,41.795 C12.897,44.006 14.122,45.929 15.709,47.511 C18.918,50.710 27.399,51.066 36.038,46.124 C40.225,43.730 43.233,40.051 44.977,35.192 C46.508,30.925 47.022,25.760 46.461,20.257 C45.947,15.207 46.512,11.052 48.189,7.554 C49.003,5.856 50.021,4.443 51.085,3.255 C49.395,3.904 47.289,4.849 45.110,6.167 C44.948,6.265 44.769,6.312 44.591,6.312 C44.253,6.312 43.922,6.141 43.734,5.831 C43.447,5.359 43.597,4.745 44.070,4.459 C45.383,3.664 46.667,2.998 47.872,2.440 C45.077,2.844 41.911,3.533 38.637,4.602 C30.868,7.139 24.172,11.268 19.274,16.541 C10.729,25.740 10.506,34.047 11.134,38.180 C11.216,38.725 10.840,39.234 10.293,39.317 C9.746,39.400 9.235,39.025 9.152,38.479 C8.470,33.991 8.688,24.997 17.803,15.184 C22.932,9.662 29.920,5.346 38.013,2.704 C46.633,-0.112 53.223,-0.085 55.037,-0.010 C55.455,0.008 55.818,0.281 55.948,0.677 C56.078,1.073 55.948,1.508 55.622,1.768 Z" class="cls-1"/>
</svg>
