<svg xmlns="http://www.w3.org/2000/svg" xmlns:xlink="http://www.w3.org/1999/xlink" preserveAspectRatio="xMidYMid" width="49" height="67" viewBox="0 0 49 67">
  <defs>
    <style>
      .cls-1 {
        fill: #fff;
        fill-rule: evenodd;
      }
    </style>
  </defs>
  <path d="M48.090,56.339 C48.011,56.356 47.934,56.364 47.857,56.364 C47.342,56.364 46.880,56.005 46.767,55.480 L46.501,54.222 L45.350,54.546 C45.251,54.574 45.149,54.589 45.049,54.589 C44.562,54.589 44.114,54.266 43.976,53.774 C43.810,53.180 44.155,52.563 44.747,52.395 L46.036,52.034 L45.840,51.111 L38.158,52.747 C37.555,52.874 36.964,52.491 36.835,51.887 C36.708,51.284 37.092,50.692 37.694,50.563 L45.377,48.926 C46.588,48.670 47.765,49.442 48.020,50.646 L48.948,55.015 C49.076,55.618 48.692,56.211 48.090,56.339 ZM24.497,53.471 C13.809,53.471 4.434,44.079 4.434,33.372 C4.434,22.021 11.279,12.781 17.022,7.028 C17.342,6.708 17.820,6.612 18.235,6.785 C18.653,6.959 18.925,7.366 18.925,7.817 C18.925,10.704 19.354,13.158 19.826,14.983 C20.958,10.791 23.239,4.149 27.054,0.328 C27.317,0.064 27.695,-0.050 28.058,0.022 C28.423,0.094 28.727,0.345 28.870,0.688 C30.984,5.769 33.738,9.494 36.404,13.098 C40.600,18.770 44.562,24.128 44.562,33.372 C44.562,44.079 35.186,53.471 24.497,53.471 ZM34.613,14.426 C32.154,11.102 29.619,7.676 27.523,3.162 C23.053,8.857 21.155,19.073 21.135,19.184 C21.051,19.657 20.672,20.021 20.197,20.089 C19.716,20.155 19.255,19.912 19.042,19.483 C18.959,19.316 17.265,15.865 16.808,10.485 C11.827,15.965 6.663,23.927 6.663,33.372 C6.663,42.722 15.164,51.238 24.497,51.238 C33.832,51.238 42.333,42.722 42.333,33.372 C42.333,24.865 38.755,20.028 34.613,14.426 ZM24.497,46.771 C23.882,46.771 23.383,46.271 23.383,45.654 C23.383,45.038 23.882,44.538 24.497,44.538 C30.643,44.538 35.645,39.529 35.645,33.372 C35.645,32.755 36.143,32.255 36.759,32.255 C37.375,32.255 37.874,32.755 37.874,33.372 C37.874,40.760 31.874,46.771 24.497,46.771 ZM20.037,45.933 C19.901,45.933 19.764,45.909 19.630,45.856 C17.895,45.177 16.342,44.156 15.018,42.825 C14.582,42.388 14.584,41.682 15.020,41.245 C15.456,40.809 16.162,40.812 16.596,41.248 C17.702,42.359 18.995,43.210 20.443,43.776 C21.016,44.001 21.299,44.648 21.075,45.222 C20.903,45.664 20.482,45.933 20.037,45.933 ZM36.793,6.700 C36.176,6.700 35.672,6.200 35.672,5.584 C35.672,4.968 36.165,4.467 36.781,4.467 L36.793,4.467 C37.408,4.467 37.907,4.968 37.907,5.584 C37.907,6.200 37.408,6.700 36.793,6.700 ZM16.138,3.351 C15.215,3.351 14.466,2.599 14.466,1.676 C14.466,0.752 15.215,0.001 16.138,0.001 C17.060,0.001 17.809,0.752 17.809,1.676 C17.809,2.599 17.060,3.351 16.138,3.351 ZM7.811,4.467 C7.195,4.467 6.691,3.967 6.691,3.351 C6.691,2.734 7.184,2.234 7.799,2.234 L7.811,2.234 C8.426,2.234 8.926,2.734 8.926,3.351 C8.926,3.967 8.426,4.467 7.811,4.467 ZM8.892,11.167 C8.892,12.399 7.892,13.400 6.663,13.400 C5.434,13.400 4.434,12.399 4.434,11.167 C4.434,9.935 5.434,8.934 6.663,8.934 C7.892,8.934 8.892,9.935 8.892,11.167 ZM31.751,59.503 C31.638,60.024 31.176,60.380 30.664,60.380 C30.584,60.380 30.504,60.371 30.425,60.354 L19.417,57.935 C18.816,57.803 18.435,57.207 18.567,56.605 C18.699,56.002 19.302,55.620 19.894,55.754 L30.902,58.173 C31.504,58.305 31.884,58.901 31.751,59.503 ZM11.098,51.660 C10.968,52.262 10.374,52.649 9.776,52.519 L3.154,51.109 L2.972,51.970 L4.950,52.403 C5.551,52.535 5.932,53.132 5.801,53.733 C5.688,54.255 5.225,54.611 4.714,54.611 C4.633,54.611 4.554,54.603 4.474,54.585 L2.510,54.155 L2.229,55.479 L45.841,64.766 L46.073,63.672 L41.615,62.778 C41.012,62.657 40.620,62.069 40.741,61.464 C40.862,60.859 41.449,60.467 42.053,60.588 L46.536,61.487 L46.767,60.396 L28.828,56.576 C28.227,56.448 27.843,55.855 27.970,55.252 C28.099,54.648 28.689,54.262 29.292,54.392 L47.232,58.212 C48.435,58.469 49.204,59.658 48.948,60.862 L48.501,62.974 C48.498,62.990 48.504,63.004 48.501,63.019 C48.496,63.039 48.484,63.054 48.479,63.073 L48.021,65.229 C47.797,66.277 46.869,66.999 45.840,66.999 C45.687,66.999 45.533,66.983 45.378,66.951 L1.764,57.664 C0.561,57.407 -0.209,56.218 0.049,55.014 L0.974,50.646 C1.230,49.442 2.422,48.671 3.617,48.926 L10.238,50.335 C10.841,50.463 11.224,51.055 11.098,51.660 ZM0.907,59.536 C1.509,59.404 2.102,59.794 2.229,60.397 L2.532,61.832 L3.738,61.491 C4.326,61.329 4.947,61.671 5.113,62.265 C5.279,62.858 4.934,63.475 4.341,63.642 L2.996,64.020 L3.154,64.767 L14.234,62.406 C14.832,62.274 15.427,62.662 15.556,63.266 C15.683,63.869 15.300,64.462 14.697,64.590 L3.618,66.949 C3.462,66.983 3.306,67.000 3.149,67.000 C2.723,67.000 2.307,66.877 1.941,66.639 C1.441,66.314 1.097,65.815 0.974,65.231 L0.047,60.861 C-0.080,60.258 0.304,59.665 0.907,59.536 Z" class="cls-1"/>
</svg>
