<svg xmlns="http://www.w3.org/2000/svg" xmlns:xlink="http://www.w3.org/1999/xlink" preserveAspectRatio="xMidYMid" width="23" height="32" viewBox="0 0 23 32">
  <defs>
    <style>
      .cls-1 {
        fill: #fff;
        fill-rule: evenodd;
      }
    </style>
  </defs>
  <path d="M19.516,-0.001 C19.516,-0.001 16.879,2.554 14.027,3.583 C-7.095,11.211 1.813,26.075 2.103,26.124 C2.103,26.124 3.288,24.065 4.888,22.890 C15.041,15.438 17.104,6.861 17.104,6.861 C17.104,6.861 14.826,17.183 5.793,23.605 C3.798,25.022 2.448,28.513 1.876,32.001 C1.876,32.001 3.290,31.432 3.898,31.277 C4.135,29.732 4.631,28.252 5.469,26.931 C18.093,28.432 22.227,18.276 22.767,14.735 C24.042,6.371 19.516,-0.001 19.516,-0.001 Z" class="cls-1"/>
</svg>
