<svg xmlns="http://www.w3.org/2000/svg" xmlns:xlink="http://www.w3.org/1999/xlink" preserveAspectRatio="xMidYMid" width="30" height="33" viewBox="0 0 30 33">
  <defs>
    <style>
      .cls-1 {
        fill: #fff;
        fill-rule: evenodd;
      }
    </style>
  </defs>
  <path d="M29.069,9.768 C29.069,7.264 27.100,5.204 24.574,4.952 C23.866,3.107 22.031,1.790 19.873,1.790 C18.928,1.790 18.047,2.046 17.293,2.484 C16.435,1.002 14.795,-0.002 12.910,-0.002 C10.411,-0.002 8.345,1.763 7.961,4.070 C7.757,4.046 7.551,4.029 7.340,4.029 C4.569,4.029 2.322,6.198 2.322,8.873 C2.322,9.004 2.331,9.132 2.342,9.261 C0.937,10.119 0.001,11.628 0.001,13.352 C0.001,14.876 0.731,16.234 1.871,17.121 C1.866,17.208 1.858,17.295 1.858,17.383 C1.858,20.058 4.104,22.227 6.876,22.227 C7.707,22.227 8.489,22.029 9.179,21.685 C10.135,22.347 11.504,23.176 12.166,23.011 C12.166,23.011 12.413,26.697 12.360,27.633 C12.258,29.414 11.705,31.397 11.315,33.001 L17.350,33.001 C17.350,33.001 16.460,29.424 16.421,28.230 C16.383,27.036 16.808,24.836 16.808,24.836 L18.901,22.747 C19.707,23.278 20.680,23.580 21.730,23.580 C24.324,23.580 26.459,21.675 26.721,19.238 C28.632,18.554 29.998,16.779 29.998,14.696 C29.998,13.465 29.519,12.347 28.736,11.492 C28.948,10.956 29.069,10.376 29.069,9.768 ZM10.338,20.885 C10.740,20.514 11.078,20.081 11.335,19.600 L12.321,21.592 C12.321,21.592 11.784,21.821 10.338,20.885 ZM14.023,22.115 C13.512,22.204 12.644,20.689 12.028,19.457 C12.711,19.794 13.483,19.987 14.303,19.987 C14.513,19.987 14.720,19.971 14.924,19.946 C14.766,20.932 14.486,22.033 14.023,22.115 ZM16.189,23.084 C15.010,23.401 15.716,21.043 16.053,19.678 C16.298,19.591 16.535,19.487 16.759,19.365 C16.895,20.359 17.343,21.257 18.007,21.967 C17.432,22.459 16.770,22.929 16.189,23.084 Z" class="cls-1"/>
</svg>
