<svg xmlns="http://www.w3.org/2000/svg" xmlns:xlink="http://www.w3.org/1999/xlink" preserveAspectRatio="xMidYMid" width="30" height="26" viewBox="0 0 30 26">
  <defs>
    <style>
      .cls-1 {
        fill: #fff;
        fill-rule: evenodd;
      }
    </style>
  </defs>
  <path d="M27.873,2.097 C26.456,0.698 24.497,-0.002 21.997,-0.002 C21.305,-0.002 20.599,0.119 19.879,0.362 C19.160,0.605 18.490,0.932 17.871,1.344 C17.251,1.756 16.718,2.142 16.272,2.503 C15.826,2.865 15.401,3.249 15.000,3.655 C14.598,3.249 14.173,2.865 13.727,2.503 C13.281,2.142 12.748,1.756 12.128,1.344 C11.509,0.932 10.839,0.605 10.120,0.362 C9.400,0.119 8.694,-0.002 8.002,-0.002 C5.502,-0.002 3.543,0.698 2.126,2.097 C0.708,3.497 -0.000,5.438 -0.000,7.921 C-0.000,8.677 0.131,9.456 0.393,10.257 C0.655,11.058 0.954,11.741 1.289,12.306 C1.624,12.870 2.003,13.420 2.427,13.956 C2.851,14.492 3.161,14.862 3.356,15.065 C3.552,15.268 3.705,15.415 3.817,15.505 L14.263,25.697 C14.464,25.900 14.709,26.002 15.000,26.002 C15.290,26.002 15.535,25.900 15.736,25.697 L26.166,15.539 C28.722,12.955 29.999,10.415 29.999,7.921 C29.999,5.438 29.291,3.497 27.873,2.097 Z" class="cls-1"/>
</svg>
