<svg xmlns="http://www.w3.org/2000/svg" xmlns:xlink="http://www.w3.org/1999/xlink" preserveAspectRatio="xMidYMid" width="26" height="27" viewBox="0 0 26 27">
  <defs>
    <style>
      .cls-1 {
        fill: #fff;
        fill-rule: evenodd;
      }
    </style>
  </defs>
  <path d="M25.846,19.467 L20.907,24.685 C20.690,24.920 20.303,24.956 20.046,24.766 L15.966,21.741 C15.710,21.551 15.656,21.186 15.848,20.931 L16.372,20.234 C16.564,19.979 16.932,19.924 17.189,20.114 L19.805,22.039 C20.062,22.228 20.450,22.191 20.667,21.956 L24.360,18.081 C24.577,17.846 24.945,17.833 25.179,18.050 L25.816,18.645 C26.049,18.863 26.063,19.233 25.846,19.467 ZM22.608,15.173 C22.100,15.022 21.616,14.932 20.867,14.932 C17.308,14.932 14.423,17.824 14.423,21.392 C14.423,22.626 14.770,23.780 15.369,24.760 C15.434,24.865 15.550,24.990 15.333,25.178 C13.703,26.394 12.491,27.000 11.740,27.000 C9.390,27.000 -0.000,19.852 -0.000,12.242 C-0.000,12.156 0.118,4.366 0.141,4.206 C0.233,3.573 0.523,3.621 0.706,3.630 C2.257,3.702 3.915,3.795 5.645,3.295 C8.712,2.408 10.736,-0.000 11.740,-0.000 C12.776,-0.000 15.503,2.408 18.569,3.295 C20.045,3.721 21.449,3.721 22.825,3.714 C23.017,3.713 23.447,3.711 23.447,4.463 C23.447,4.557 23.480,12.181 23.480,12.242 C23.480,13.137 23.350,14.026 23.117,14.898 C23.081,15.031 22.950,15.318 22.608,15.173 Z" class="cls-1"/>
</svg>
