<svg viewBox="0 0 56 40">
  <path fill="#fff" d="M55.989,22.565 C55.628,24.933 54.369,27.019 52.442,28.437 C50.889,29.582 49.051,30.182 47.159,30.182 C46.856,30.182 46.552,30.165 46.248,30.134 C45.879,30.992 45.454,31.832 44.972,32.646 C45.569,32.456 46.188,32.324 46.826,32.261 C49.205,32.024 51.534,32.729 53.384,34.246 C53.570,34.399 53.688,34.618 53.712,34.857 C53.735,35.097 53.663,35.335 53.511,35.521 C51.744,37.684 49.171,38.804 46.577,38.804 C44.783,38.804 42.981,38.266 41.428,37.168 C40.411,38.167 39.299,39.070 38.120,39.850 C37.967,39.951 37.794,40.000 37.622,40.000 C37.329,40.000 37.041,39.857 36.867,39.593 C36.592,39.175 36.707,38.614 37.124,38.338 C38.262,37.585 39.333,36.708 40.306,35.732 C42.484,33.550 44.062,30.991 45.040,28.263 C43.066,27.502 41.440,26.084 40.413,24.205 C39.264,22.103 39.001,19.680 39.673,17.380 C39.813,16.900 40.315,16.625 40.794,16.765 C43.244,17.483 45.154,19.165 46.238,21.277 C46.230,19.347 45.951,17.418 45.400,15.553 C44.664,15.742 43.922,15.833 43.190,15.833 C39.503,15.833 36.042,13.533 34.743,9.857 C34.576,9.386 34.823,8.868 35.294,8.701 C37.536,7.905 39.952,8.029 42.102,9.045 C41.557,8.330 40.959,7.642 40.306,6.988 C39.954,6.634 39.954,6.060 40.306,5.707 C40.660,5.353 41.232,5.353 41.585,5.707 C42.050,6.172 42.488,6.654 42.902,7.149 C42.917,6.761 42.954,6.372 43.020,5.984 C43.416,3.621 44.708,1.555 46.657,0.166 C46.852,0.027 47.095,-0.029 47.331,0.011 C47.568,0.051 47.778,0.183 47.917,0.379 C50.676,4.262 49.898,9.614 46.238,12.563 C46.535,13.253 46.795,13.955 47.019,14.666 C47.196,14.269 47.403,13.882 47.640,13.507 C48.920,11.484 50.910,10.082 53.244,9.558 C53.731,9.449 54.215,9.756 54.323,10.244 C54.846,12.582 54.428,14.984 53.148,17.007 C51.959,18.885 50.158,20.227 48.040,20.829 C48.063,21.791 48.022,22.754 47.921,23.712 C49.845,21.993 52.491,21.113 55.232,21.533 C55.725,21.608 56.064,22.070 55.989,22.565 ZM42.851,35.940 C45.573,37.615 49.108,37.262 51.447,35.083 C50.123,34.266 48.579,33.906 47.005,34.063 C45.432,34.221 43.987,34.878 42.851,35.940 ZM41.199,18.839 C40.966,20.379 41.239,21.945 41.999,23.335 C42.758,24.724 43.927,25.799 45.347,26.432 C45.822,23.267 44.115,20.144 41.199,18.839 ZM41.357,10.696 C39.930,10.014 38.354,9.827 36.833,10.146 C38.296,12.991 41.501,14.523 44.630,13.873 C43.920,12.487 42.784,11.378 41.357,10.696 ZM46.953,2.259 C45.818,3.323 45.066,4.723 44.803,6.284 C44.540,7.847 44.793,9.416 45.517,10.794 C47.846,8.603 48.437,5.093 46.953,2.259 ZM48.081,18.912 C49.539,18.372 50.774,17.375 51.621,16.037 C52.467,14.699 52.841,13.154 52.708,11.603 C49.713,12.717 47.810,15.723 48.081,18.912 ZM47.031,28.368 C50.223,28.417 53.086,26.311 53.991,23.242 C50.796,23.189 47.935,25.299 47.031,28.368 ZM36.138,21.083 C36.244,21.411 36.155,21.771 35.909,22.012 L32.610,25.233 L33.389,29.783 C33.447,30.123 33.308,30.466 33.030,30.669 C32.872,30.783 32.685,30.841 32.498,30.841 C32.354,30.841 32.210,30.807 32.077,30.738 L28.000,28.590 L23.922,30.738 C23.617,30.898 23.248,30.871 22.970,30.669 C22.691,30.466 22.552,30.123 22.610,29.783 L23.389,25.233 L20.090,22.012 C19.844,21.771 19.755,21.411 19.861,21.083 C19.968,20.755 20.251,20.516 20.591,20.466 L25.150,19.803 L27.189,15.663 C27.341,15.355 27.656,15.158 28.000,15.158 C28.344,15.158 28.658,15.354 28.810,15.663 L30.849,19.803 L35.408,20.466 C35.749,20.516 36.032,20.755 36.138,21.083 ZM30.119,21.527 C29.825,21.484 29.570,21.299 29.439,21.032 L28.000,18.112 L26.562,21.032 C26.430,21.299 26.175,21.484 25.881,21.527 L22.664,21.996 L24.992,24.269 C25.205,24.477 25.302,24.776 25.252,25.070 L24.702,28.280 L27.579,26.765 C27.842,26.626 28.157,26.626 28.420,26.765 L31.297,28.280 L30.748,25.070 C30.697,24.776 30.795,24.477 31.008,24.269 L33.336,21.996 L30.119,21.527 ZM12.810,15.833 C12.077,15.833 11.335,15.742 10.600,15.553 C10.049,17.415 9.770,19.341 9.761,21.268 C9.796,21.201 9.829,21.133 9.866,21.066 C11.014,18.965 12.910,17.437 15.205,16.765 C15.684,16.625 16.187,16.900 16.327,17.380 C17.641,21.883 15.252,26.604 10.959,28.262 C11.937,30.990 13.514,33.550 15.692,35.732 C16.666,36.708 17.737,37.585 18.876,38.338 C19.293,38.614 19.407,39.175 19.132,39.593 C18.958,39.857 18.670,40.000 18.377,40.000 C18.206,40.000 18.033,39.951 17.879,39.850 C16.700,39.070 15.589,38.167 14.572,37.168 C13.059,38.240 11.277,38.808 9.431,38.808 C9.131,38.808 8.830,38.794 8.527,38.763 C6.148,38.526 4.003,37.374 2.488,35.521 C2.172,35.134 2.229,34.563 2.615,34.246 C5.052,32.247 8.235,31.756 11.032,32.654 C10.548,31.837 10.122,30.995 9.752,30.134 C9.447,30.165 9.143,30.182 8.840,30.182 C6.947,30.182 5.111,29.582 3.557,28.437 C1.631,27.019 0.371,24.933 0.010,22.565 C-0.065,22.070 0.274,21.608 0.767,21.533 C3.132,21.171 5.494,21.753 7.420,23.172 C7.649,23.341 7.868,23.520 8.078,23.706 C7.977,22.750 7.936,21.789 7.959,20.829 C3.432,19.540 0.635,14.902 1.676,10.245 C1.728,10.010 1.871,9.806 2.074,9.677 C2.276,9.549 2.522,9.506 2.756,9.558 C5.089,10.082 7.079,11.484 8.360,13.508 C8.596,13.882 8.803,14.269 8.981,14.667 C9.205,13.955 9.464,13.253 9.761,12.563 C8.051,11.186 6.916,9.255 6.548,7.070 C6.151,4.707 6.696,2.331 8.082,0.379 C8.372,-0.028 8.936,-0.124 9.343,0.166 C11.697,1.845 12.994,4.463 13.093,7.154 C13.509,6.657 13.948,6.174 14.414,5.707 C14.767,5.353 15.339,5.353 15.692,5.707 C16.046,6.060 16.046,6.634 15.692,6.988 C15.040,7.642 14.442,8.330 13.898,9.046 C16.047,8.029 18.463,7.906 20.705,8.701 C21.177,8.868 21.423,9.386 21.256,9.857 C19.957,13.533 16.496,15.833 12.810,15.833 ZM4.552,35.083 C5.689,36.146 7.133,36.804 8.706,36.960 C10.279,37.117 11.825,36.758 13.149,35.941 C10.810,33.761 7.274,33.409 4.552,35.083 ZM10.651,26.431 C13.568,25.127 15.274,22.004 14.800,18.839 C13.380,19.472 12.211,20.547 11.452,21.936 C10.692,23.326 10.418,24.892 10.651,26.431 ZM6.832,14.477 C5.985,13.140 4.751,12.142 3.292,11.602 C3.022,14.791 4.924,17.797 7.919,18.912 C8.053,17.360 7.679,15.815 6.832,14.477 ZM2.123,23.241 C2.085,23.241 2.046,23.241 2.008,23.242 C2.446,24.736 3.354,26.040 4.628,26.978 C5.902,27.916 7.415,28.394 8.969,28.369 C8.076,25.336 5.271,23.241 2.123,23.241 ZM9.046,2.259 C8.322,3.637 8.069,5.206 8.331,6.768 C8.594,8.330 9.346,9.730 10.481,10.794 C11.965,7.960 11.375,4.449 9.046,2.259 ZM14.642,10.696 C13.215,11.378 12.079,12.487 11.369,13.873 C14.497,14.524 17.704,12.991 19.166,10.146 C17.645,9.827 16.069,10.014 14.642,10.696 Z" class="cls-1"/>
</svg>
