<svg xmlns="http://www.w3.org/2000/svg" xmlns:xlink="http://www.w3.org/1999/xlink" preserveAspectRatio="xMidYMid" width="17" height="17.5" viewBox="0 0 17 17.5">
  <defs>
    <style>
      .cls-1 {
        fill: #fff;
        fill-rule: evenodd;
      }
    </style>
  </defs>
  <path d="M3.590,-0.000 L-0.001,-0.000 L-0.001,2.059 L2.272,2.059 L3.213,5.480 L5.174,12.353 L15.276,12.353 L17.000,3.431 L4.582,3.431 L3.590,-0.000 ZM14.044,10.294 L6.372,10.294 L5.000,5.147 L15.000,5.147 L14.044,10.294 ZM13.000,13.382 C11.896,13.382 10.999,14.305 10.999,15.441 C10.999,16.576 11.896,17.499 13.000,17.499 C14.102,17.499 15.000,16.576 15.000,15.441 C15.000,14.305 14.102,13.382 13.000,13.382 ZM7.000,13.382 C5.896,13.382 5.000,14.305 5.000,15.441 C5.000,16.576 5.896,17.499 7.000,17.499 C8.102,17.499 9.000,16.576 9.000,15.441 C9.000,14.305 8.102,13.382 7.000,13.382 Z" class="cls-1"/>
</svg>
