<svg xmlns="http://www.w3.org/2000/svg" xmlns:xlink="http://www.w3.org/1999/xlink" preserveAspectRatio="xMidYMid" width="26" height="17" viewBox="0 0 26 17">
  <defs>
    <style>
      .cls-1 {
        fill: #fff;
        fill-rule: evenodd;
      }
    </style>
  </defs>
  <path d="M24.500,10.000 L1.500,10.000 C0.671,10.000 -0.000,9.328 -0.000,8.500 C-0.000,7.671 0.671,7.000 1.500,7.000 L24.500,7.000 C25.328,7.000 26.000,7.671 26.000,8.500 C26.000,9.328 25.328,10.000 24.500,10.000 ZM24.500,3.000 L1.500,3.000 C0.671,3.000 -0.000,2.328 -0.000,1.500 C-0.000,0.671 0.671,-0.000 1.500,-0.000 L24.500,-0.000 C25.328,-0.000 26.000,0.671 26.000,1.500 C26.000,2.328 25.328,3.000 24.500,3.000 ZM1.500,14.000 L24.500,14.000 C25.328,14.000 26.000,14.672 26.000,15.500 C26.000,16.328 25.328,17.000 24.500,17.000 L1.500,17.000 C0.671,17.000 -0.000,16.328 -0.000,15.500 C-0.000,14.672 0.671,14.000 1.500,14.000 Z" class="cls-1"/>
</svg>
