<svg xmlns="http://www.w3.org/2000/svg" xmlns:xlink="http://www.w3.org/1999/xlink" preserveAspectRatio="xMidYMid" width="29" height="30" viewBox="0 0 29 30">
  <defs>
    <style>
      .cls-1 {
        fill: #fff;
        fill-rule: evenodd;
      }
    </style>
  </defs>
  <path d="M28.547,27.325 L21.400,19.899 C23.238,17.717 24.245,14.971 24.245,12.113 C24.245,5.434 18.805,0.000 12.121,0.000 C5.435,0.000 -0.003,5.434 -0.003,12.113 C-0.003,18.791 5.435,24.225 12.121,24.225 C14.630,24.225 17.022,23.468 19.067,22.033 L26.268,29.515 C26.569,29.827 26.974,30.000 27.408,30.000 C27.818,30.000 28.207,29.843 28.503,29.559 C29.131,28.955 29.151,27.953 28.547,27.325 ZM12.121,3.160 C17.062,3.160 21.082,7.176 21.082,12.113 C21.082,17.049 17.062,21.065 12.121,21.065 C7.179,21.065 3.160,17.049 3.160,12.113 C3.160,7.176 7.179,3.160 12.121,3.160 Z" class="cls-1"/>
</svg>
